<svg xmlns="http://www.w3.org/2000/svg" viewBox="0 0 500 280"><defs><pattern id="hatch" width="6" height="6" patternUnits="userSpaceOnUse" patternTransform="rotate(35)"><path d="M0 0V6" stroke="#b9ad8e" stroke-width=".7" opacity=".4"/></pattern></defs><style>.ink{fill:none;stroke:#d8d0b6;stroke-width:1.5;stroke-linecap:round;stroke-linejoin:round}.fine{fill:none;stroke:#b9ad8e;stroke-width:.8;stroke-linecap:round}.guide{fill:none;stroke:#8f8266;stroke-width:.75;stroke-dasharray:3 5}.wash{fill:#d8d0b6;fill-opacity:.04;stroke:#d8d0b6;stroke-width:1.5}.dot{fill:#d8d0b6}.dim{fill:none;stroke:#82765d;stroke-width:.8}</style>
<circle class="wash" cx="188" cy="83" r="33"/>
<circle class="wash" cx="260" cy="83" r="33"/>
<circle class="ink" cx="188" cy="83" r="9"/>
<circle class="ink" cx="260" cy="83" r="9"/>
<circle class="fine" cx="188" cy="62" r="5"/><circle class="fine" cx="260" cy="62" r="5"/><circle class="fine" cx="207.97" cy="76.51" r="5"/><circle class="fine" cx="279.97" cy="76.51" r="5"/><circle class="fine" cx="200.34" cy="99.99" r="5"/><circle class="fine" cx="272.34" cy="99.99" r="5"/><circle class="fine" cx="175.66" cy="99.99" r="5"/><circle class="fine" cx="247.66" cy="99.99" r="5"/><circle class="fine" cx="168.03" cy="76.51" r="5"/><circle class="fine" cx="240.03" cy="76.51" r="5"/>
<rect class="wash" x="158" y="119" width="130" height="66"/>
<path class="wash" d="M288 135h24v34h-24M312 133l25-11v59l-25-11z"/>
<path class="fine" d="M170 130h68v43h-68zM180 145h46m-46 9h33M243 131h31v41h-31z"/>
<path class="ink" d="M213 185v17m-18 0h37M213 202l-41 48m41-48 42 48m-42-48v48"/>
<path class="guide" d="M338 134 414 83v136l-76-51M422 77v148m-8-148h16m-16 148h16M109 152h307"/>
<path class="dim" d="M103 102v99m-5-99h10m-10 99h10M157 259h102"/>
</svg>
